<svg id="visual" viewBox="0 0 1200 720" width="1200" height="720" xmlns="http://www.w3.org/2000/svg" xmlns:xlink="http://www.w3.org/1999/xlink" version="1.1"><path d="M0 495L28.5 500.3C57 505.7 114 516.3 171.2 510.7C228.3 505 285.7 483 342.8 479.3C400 475.7 457 490.3 514.2 514.7C571.3 539 628.7 573 685.8 593C743 613 800 619 857.2 599.3C914.3 579.7 971.7 534.3 1028.8 521.3C1086 508.3 1143 527.7 1171.5 537.3L1200 547L1200 721L1171.5 721C1143 721 1086 721 1028.8 721C971.7 721 914.3 721 857.2 721C800 721 743 721 685.8 721C628.7 721 571.3 721 514.2 721C457 721 400 721 342.8 721C285.7 721 228.3 721 171.2 721C114 721 57 721 28.5 721L0 721Z" fill="#0072b4"></path><path d="M0 517L28.5 537.8C57 558.7 114 600.3 171.2 617C228.3 633.7 285.7 625.3 342.8 621.7C400 618 457 619 514.2 608.8C571.3 598.7 628.7 577.3 685.8 562.3C743 547.3 800 538.7 857.2 529.3C914.3 520 971.7 510 1028.8 508.5C1086 507 1143 514 1171.5 517.5L1200 521L1200 721L1171.5 721C1143 721 1086 721 1028.8 721C971.7 721 914.3 721 857.2 721C800 721 743 721 685.8 721C628.7 721 571.3 721 514.2 721C457 721 400 721 342.8 721C285.7 721 228.3 721 171.2 721C114 721 57 721 28.5 721L0 721Z" fill="#007cc6"></path><path d="M0 606L28.5 604.3C57 602.7 114 599.3 171.2 606.2C228.3 613 285.7 630 342.8 622.2C400 614.3 457 581.7 514.2 575.5C571.3 569.3 628.7 589.7 685.8 593.5C743 597.3 800 584.7 857.2 581.8C914.3 579 971.7 586 1028.8 592.7C1086 599.3 1143 605.7 1171.5 608.8L1200 612L1200 721L1171.5 721C1143 721 1086 721 1028.8 721C971.7 721 914.3 721 857.2 721C800 721 743 721 685.8 721C628.7 721 571.3 721 514.2 721C457 721 400 721 342.8 721C285.7 721 228.3 721 171.2 721C114 721 57 721 28.5 721L0 721Z" fill="#0086d9"></path><path d="M0 659L28.5 657C57 655 114 651 171.2 651C228.3 651 285.7 655 342.8 645.5C400 636 457 613 514.2 606.7C571.3 600.3 628.7 610.7 685.8 617.7C743 624.7 800 628.3 857.2 635.5C914.3 642.7 971.7 653.3 1028.8 650.3C1086 647.3 1143 630.7 1171.5 622.3L1200 614L1200 721L1171.5 721C1143 721 1086 721 1028.8 721C971.7 721 914.3 721 857.2 721C800 721 743 721 685.8 721C628.7 721 571.3 721 514.2 721C457 721 400 721 342.8 721C285.7 721 228.3 721 171.2 721C114 721 57 721 28.5 721L0 721Z" fill="#0090ec"></path><path d="M0 632L28.5 640.2C57 648.3 114 664.7 171.2 673.8C228.3 683 285.7 685 342.8 677.3C400 669.7 457 652.3 514.2 642.8C571.3 633.3 628.7 631.7 685.8 634.8C743 638 800 646 857.2 649.5C914.3 653 971.7 652 1028.8 651.8C1086 651.7 1143 652.3 1171.5 652.7L1200 653L1200 721L1171.5 721C1143 721 1086 721 1028.8 721C971.7 721 914.3 721 857.2 721C800 721 743 721 685.8 721C628.7 721 571.3 721 514.2 721C457 721 400 721 342.8 721C285.7 721 228.3 721 171.2 721C114 721 57 721 28.5 721L0 721Z" fill="#0099ff"></path></svg>